<svg width="95" height="16" viewBox="0 0 95 16" fill="none" xmlns="http://www.w3.org/2000/svg">
<path d="M10.3383 16L15.1235 0.842468H10.9404L8.09885 11.9979H7.89814L4.97208 0.842468H0.524902L5.43687 16H10.3383Z" fill="#89AE3A"/>
<path d="M20.8911 16V0.842468H17.0143V16H20.8911Z" fill="#89AE3A"/>
<path d="M31.2432 16V3.94121H35.6481V0.842468H22.9826V3.94121H27.377V16H31.2432Z" fill="#89AE3A"/>
<path d="M45.9052 16H50.1305L45.0073 0.842468H40.2643L35.1517 16H38.9967L39.9791 12.6702H44.9545L45.9052 16ZM42.3876 4.25633H42.5883L44.2256 9.89709H40.7186L42.3876 4.25633Z" fill="#89AE3A"/>
<path d="M62.3735 12.8173H55.8981V0.842468H52.0214V16H62.3735V12.8173Z" fill="#89AE3A"/>
<path d="M74.9756 12.9013H68.4052V9.80255H74.5848V6.96642H68.4052V3.94121H74.9756V0.842468H64.5284V16H74.9756V12.9013Z" fill="#89AE3A"/>
<path d="M94.3383 16V0.842468H89.7643L86.0777 10.1387H85.877L82.1798 0.842468H77.6059V16H81.1869V6.4307H81.377L84.7784 14.8656H87.1763L90.5671 6.4307H90.7573V16H94.3383Z" fill="#89AE3A"/>
</svg>
