<svg width="200" height="200" viewBox="0 0 200 200" fill="none" xmlns="http://www.w3.org/2000/svg">
<path d="M53.8006 78.3165C53.8006 78.3165 56.9139 79.6433 56.0293 81.8347C55.1448 84.0261 52.0942 92.9733 51.7553 97.5582C51.4161 102.143 51.1039 106.688 52.0269 112.551C52.9499 118.414 54.8102 122.875 54.8102 122.875L47.8112 123.502C47.8112 123.502 41.1241 100.368 41.1377 100.261C41.1511 100.154 47.0363 84.4924 47.0363 84.4924L51.6626 77.3515L53.8006 78.3165Z" fill="#CA3123"/>
<path fill-rule="evenodd" clip-rule="evenodd" d="M47.1128 124.523L56.1921 123.709L55.6911 122.507L55.691 122.507L55.6904 122.506L55.6873 122.498C55.6843 122.491 55.6796 122.479 55.6732 122.464C55.6605 122.433 55.6412 122.385 55.6161 122.321C55.5658 122.193 55.4919 122.003 55.4 121.754C55.216 121.258 54.96 120.532 54.6751 119.625C54.1047 117.81 53.4219 115.276 52.9695 112.403C52.0649 106.657 52.3683 102.206 52.707 97.6284C52.8681 95.4488 53.6872 92.1533 54.6025 89.0703C55.5124 86.0057 56.4865 83.2513 56.9142 82.1917C57.5809 80.54 56.6694 79.2557 55.8877 78.5467C55.4859 78.1823 55.0614 77.9089 54.746 77.7289C54.5862 77.6378 54.4493 77.5677 54.3499 77.5194C54.3001 77.4952 54.2594 77.4762 54.2297 77.4627C54.2148 77.456 54.2026 77.4506 54.1934 77.4465L54.187 77.4437L51.3076 76.1441L46.1792 84.0599L46.1429 84.1565L47.0362 84.4922C46.1429 84.1565 46.1429 84.1564 46.1429 84.1565L45.8899 84.8297C45.729 85.2582 45.499 85.8705 45.223 86.6055C44.671 88.0755 43.9349 90.0367 43.1984 92.0013C42.4618 93.9658 41.7247 95.9341 41.1709 97.4181C40.894 98.1599 40.6626 98.7815 40.4999 99.2213C40.4186 99.441 40.354 99.6167 40.3092 99.7399C40.287 99.8011 40.2687 99.8518 40.2555 99.8894C40.2491 99.9075 40.2424 99.9268 40.2367 99.9442C40.234 99.9523 40.2296 99.9658 40.2249 99.9812C40.2227 99.9886 40.2187 100.002 40.2143 100.019L40.214 100.02C40.2118 100.029 40.1989 100.078 40.191 100.14C40.1909 100.141 40.1908 100.142 40.1907 100.142C40.1852 100.201 40.1837 100.29 40.1852 100.322C40.1867 100.342 40.1902 100.376 40.192 100.39C40.1957 100.418 40.1998 100.439 40.2018 100.45C40.2061 100.472 40.2105 100.491 40.2131 100.502C40.2187 100.526 40.2256 100.552 40.2322 100.578C40.2461 100.631 40.2658 100.704 40.2902 100.792C40.3393 100.971 40.4112 101.228 40.5021 101.549C40.6841 102.194 40.9446 103.108 41.2571 104.2C41.8824 106.385 42.7172 109.287 43.5523 112.186C44.3874 115.085 45.2229 117.98 45.8496 120.15C46.163 121.236 46.4242 122.14 46.607 122.773L46.8943 123.767C46.8943 123.767 46.8943 123.767 47.8111 123.502L46.8943 123.767L47.1128 124.523ZM48.5095 122.481L48.4407 122.243C48.2578 121.61 47.9967 120.706 47.6834 119.621C47.0567 117.451 46.2213 114.556 45.3863 111.657C44.5513 108.759 43.7169 105.858 43.0921 103.675C42.7797 102.583 42.52 101.672 42.3389 101.031C42.2513 100.72 42.1825 100.475 42.1353 100.304C42.1755 100.194 42.2274 100.053 42.29 99.8835C42.4517 99.4464 42.6823 98.8269 42.959 98.0855C43.5124 96.6028 44.2491 94.6357 44.9855 92.6714C45.7219 90.7072 46.458 88.7463 47.0099 87.2764C47.2858 86.5415 47.5158 85.9294 47.6767 85.5009L47.8933 84.9245L52.0175 78.5586L53.4171 79.1903L53.4237 79.1931L53.4253 79.1938C53.4278 79.1949 53.4331 79.1972 53.4408 79.2007C53.4562 79.2077 53.4816 79.2195 53.5152 79.2358C53.5826 79.2686 53.682 79.3193 53.8002 79.3868C54.0409 79.5241 54.3395 79.7193 54.6054 79.9605C55.1592 80.4628 55.3621 80.9376 55.1443 81.4773C54.6875 82.6091 53.6941 85.424 52.7728 88.5271C51.857 91.6118 50.9813 95.0824 50.8035 97.4876C50.4638 102.08 50.1427 106.72 51.0841 112.699C51.5547 115.689 52.2635 118.317 52.8541 120.197C53.0843 120.93 53.2969 121.551 53.4713 122.036L48.5095 122.481Z" fill="#1C1C1C"/>
<path d="M51.1932 74.1973C51.1932 74.1973 54.1312 75.8772 52.9977 77.9509C51.8642 80.0247 47.7936 88.5562 46.9238 93.0707C46.0537 97.5852 45.215 102.063 45.45 107.994C45.6848 113.924 47.0135 118.571 47.0135 118.571L39.9891 118.38C39.9891 118.38 36.0382 94.6249 36.0641 94.5202C36.0897 94.4155 43.7565 79.5446 43.7565 79.5446L49.182 72.9905L51.1932 74.1973Z" fill="#CA3123"/>
<path fill-rule="evenodd" clip-rule="evenodd" d="M45.7811 117.582L40.8014 117.448L40.7607 117.203C40.6528 116.553 40.4985 115.625 40.3135 114.511C39.9436 112.282 39.4505 109.309 38.9583 106.334C38.4661 103.358 37.9748 100.379 37.6082 98.1383C37.4248 97.0177 37.2728 96.0825 37.1676 95.4246C37.1166 95.1062 37.0769 94.8545 37.0499 94.6787C37.1026 94.5743 37.1705 94.4403 37.2524 94.2795C37.4638 93.8641 37.7649 93.2757 38.126 92.5714C38.848 91.1632 39.8085 89.295 40.7684 87.4297C41.7283 85.5645 42.6873 83.7025 43.4065 82.3068C43.766 81.609 44.0656 81.0277 44.2752 80.6209L44.5574 80.0735L49.3941 74.2307L50.7107 75.0207L50.717 75.0243L50.7177 75.0247L50.7184 75.0252C50.7208 75.0265 50.7257 75.0295 50.733 75.0339C50.7475 75.0426 50.7713 75.0572 50.8028 75.0774C50.866 75.1178 50.9588 75.1797 51.0684 75.2605C51.2915 75.4248 51.5653 75.6535 51.8014 75.924C52.2931 76.4872 52.4394 76.9824 52.1602 77.4931C51.5748 78.5641 50.2607 81.2444 48.9847 84.2193C47.7163 87.1765 46.4429 90.5217 45.9866 92.8901C45.1151 97.412 44.2567 101.983 44.4964 108.031C44.6161 111.056 45.0144 113.748 45.3822 115.684C45.5255 116.439 45.6645 117.08 45.7811 117.582ZM43.7564 79.5445C42.9082 79.1072 42.9082 79.1073 42.9081 79.1074L42.5787 79.7465C42.369 80.1533 42.0694 80.7347 41.7098 81.4326C40.9906 82.8285 40.0313 84.6908 39.0713 86.5564C38.1113 88.4219 37.1503 90.2911 36.4276 91.7006C36.0663 92.4052 35.7642 92.9957 35.5514 93.4136C35.4452 93.6224 35.3605 93.7894 35.3017 93.9065C35.2725 93.9647 35.2485 94.013 35.231 94.0488C35.2225 94.0661 35.2136 94.0844 35.2059 94.1011C35.2023 94.1089 35.1963 94.1218 35.1899 94.1366C35.1868 94.1437 35.1812 94.1569 35.1748 94.1734L35.1745 94.1743C35.1712 94.1826 35.1527 94.2298 35.1376 94.2909C35.1374 94.2917 35.1372 94.2924 35.1371 94.2932C35.1248 94.3508 35.1131 94.4389 35.1109 94.4707C35.11 94.491 35.1096 94.525 35.1097 94.5391C35.1102 94.5667 35.1118 94.5888 35.1125 94.599C35.1142 94.6214 35.1164 94.6411 35.1177 94.652C35.1205 94.6763 35.1242 94.7038 35.1279 94.73C35.1355 94.7842 35.1466 94.8588 35.1605 94.9497C35.1885 95.1328 35.23 95.3959 35.2829 95.7262C35.3887 96.3875 35.5411 97.3254 35.7246 98.4465C36.0915 100.689 36.583 103.669 37.0753 106.645C37.5676 109.621 38.0606 112.594 38.4307 114.823C38.6157 115.938 38.7699 116.866 38.8779 117.516L39.0476 118.537C39.0476 118.537 39.0476 118.537 39.989 118.38L39.0476 118.537L39.1767 119.313L48.2889 119.56L47.9311 118.308L47.931 118.308L47.9306 118.307L47.9284 118.299C47.9262 118.291 47.9229 118.279 47.9184 118.263C47.9094 118.231 47.8959 118.181 47.8783 118.115C47.8431 117.982 47.792 117.784 47.7295 117.527C47.6046 117.012 47.4347 116.262 47.2573 115.328C46.9021 113.458 46.5186 110.862 46.4036 107.956C46.1732 102.144 46.9922 97.7584 47.8608 93.2512C48.2743 91.105 49.4711 87.9273 50.7389 84.9717C51.999 82.0337 53.287 79.4113 53.835 78.4085C54.6893 76.8455 53.9334 75.464 53.2394 74.6689C52.8827 74.2602 52.4929 73.9393 52.2006 73.7239C52.0524 73.6147 51.9245 73.5292 51.8315 73.4696C51.7848 73.4398 51.7466 73.4163 51.7187 73.3994C51.7047 73.391 51.6932 73.3842 51.6845 73.3791L51.6785 73.3756L48.9698 71.7502L42.9555 79.0155L42.9081 79.1074L43.7564 79.5445Z" fill="#1C1C1C"/>
<path d="M49.3671 68.7234C49.3671 68.7234 52.1619 70.632 50.8668 72.6088C49.5716 74.5856 44.8341 82.7656 43.6071 87.1964C42.3801 91.6272 41.1872 96.0239 40.9486 101.954C40.71 107.885 41.6643 112.622 41.6643 112.622L34.6773 111.873C34.6773 111.873 32.6323 87.8781 32.6664 87.7758C32.7005 87.6736 41.528 73.4609 41.528 73.4609L47.4585 67.36L49.3671 68.7234Z" fill="#CA3123"/>
<path fill-rule="evenodd" clip-rule="evenodd" d="M40.5146 111.539L35.5613 111.008L35.5403 110.76C35.4844 110.104 35.4047 109.167 35.3091 108.041C35.1179 105.79 34.8634 102.788 34.6099 99.7823C34.3564 96.7767 34.1041 93.7685 33.9172 91.5055C33.8238 90.3738 33.7468 89.4295 33.6943 88.7653C33.6689 88.4439 33.6493 88.1898 33.6364 88.0124C33.6972 87.9126 33.7757 87.7844 33.8701 87.6307C34.114 87.2335 34.461 86.6709 34.8771 85.9976C35.7091 84.6514 36.8154 82.8658 37.921 81.0829C39.0264 79.3001 40.1308 77.5204 40.9589 76.1865C41.3729 75.5195 41.7179 74.964 41.9593 74.5752L42.2842 74.052L47.5711 68.6132L48.8205 69.5057L48.8265 69.5098L48.8272 69.5102L48.8279 69.5107C48.8301 69.5123 48.8349 69.5156 48.8417 69.5205C48.8555 69.5304 48.8781 69.5469 48.9079 69.5695C48.9676 69.6148 49.0552 69.6839 49.158 69.7731C49.3673 69.9548 49.6221 70.2045 49.8359 70.493C50.281 71.0936 50.3874 71.5989 50.0684 72.0858C49.3995 73.1067 47.876 75.6737 46.367 78.5374C44.8669 81.3841 43.331 84.6173 42.6873 86.9417C41.4583 91.3797 40.2383 95.8674 39.9949 101.916C39.8733 104.94 40.0557 107.656 40.2681 109.615C40.3509 110.379 40.4384 111.029 40.5146 111.539ZM41.5279 73.4608C40.7172 72.9573 40.7172 72.9574 40.7171 72.9575L40.3378 73.5683C40.0963 73.9572 39.7514 74.5128 39.3373 75.1798C38.5091 76.514 37.4045 78.2939 36.2988 80.077C35.1932 81.8601 34.0863 83.6468 33.2535 84.9942C32.8372 85.6678 32.489 86.2323 32.2436 86.632C32.1211 86.8315 32.0234 86.9913 31.9554 87.1033C31.9217 87.159 31.8939 87.2052 31.8736 87.2394C31.8638 87.256 31.8535 87.2735 31.8444 87.2895C31.8402 87.2969 31.8333 87.3092 31.8258 87.3233C31.8222 87.3301 31.8155 87.3428 31.8079 87.3586L31.8075 87.3594C31.8036 87.3675 31.781 87.4137 31.7609 87.474C31.7441 87.5303 31.7249 87.619 31.7201 87.6509C31.7176 87.671 31.7145 87.7048 31.7135 87.7189C31.7118 87.7464 31.7116 87.7686 31.7116 87.7788C31.7115 87.8012 31.7121 87.8209 31.7125 87.8319C31.7134 87.8564 31.7148 87.884 31.7164 87.9104C31.7197 87.9651 31.7248 88.0403 31.7314 88.132C31.7448 88.3167 31.7652 88.5823 31.7916 88.9158C31.8444 89.5834 31.9215 90.5304 32.015 91.6626C32.202 93.9273 32.4545 96.9369 32.708 99.9427C32.9615 102.949 33.2161 105.951 33.4073 108.203C33.5029 109.328 33.5827 110.266 33.6385 110.922L33.7263 111.953C33.7263 111.954 33.7263 111.954 34.6772 111.873L33.7263 111.954L33.7931 112.738L42.8569 113.71L42.5999 112.434L42.5998 112.434L42.5995 112.433L42.5979 112.424C42.5964 112.417 42.594 112.405 42.5908 112.388C42.5845 112.355 42.5749 112.304 42.5627 112.237C42.5382 112.102 42.503 111.9 42.4612 111.639C42.3777 111.116 42.2681 110.355 42.1657 109.409C41.9606 107.517 41.7851 104.899 41.9021 101.993C42.1359 96.1804 43.3017 91.8746 44.5267 87.451C45.11 85.3446 46.5563 82.2724 48.0556 79.4272C49.5459 76.599 51.0387 74.0876 51.665 73.1318C52.6412 71.6418 51.9977 70.2044 51.3693 69.3564C51.0462 68.9206 50.6833 68.5697 50.409 68.3316C50.2701 68.2111 50.1494 68.1156 50.0614 68.0488C50.0172 68.0154 49.981 67.9889 49.9545 67.9698C49.9412 67.9603 49.9303 67.9526 49.9221 67.9468L49.9164 67.9429L47.3457 66.1067L40.7717 72.8696L40.7171 72.9575L41.5279 73.4608Z" fill="#1C1C1C"/>
<path d="M146.028 78.3165C146.028 78.3165 142.914 79.6433 143.799 81.8347C144.683 84.0261 147.734 92.9733 148.073 97.5582C148.412 102.143 148.724 106.688 147.801 112.551C146.878 118.414 145.018 122.875 145.018 122.875L152.017 123.502C152.017 123.502 158.704 100.368 158.691 100.261C158.677 100.154 152.792 84.4924 152.792 84.4924L148.166 77.3515L146.028 78.3165Z" fill="#CA3123"/>
<path fill-rule="evenodd" clip-rule="evenodd" d="M152.934 123.767L152.017 123.502C152.934 123.767 152.934 123.767 152.934 123.767L153.221 122.773C153.404 122.14 153.665 121.236 153.979 120.15C154.606 117.98 155.441 115.085 156.276 112.186C157.111 109.287 157.946 106.385 158.571 104.2C158.884 103.108 159.144 102.194 159.326 101.55C159.417 101.228 159.489 100.971 159.538 100.793C159.562 100.704 159.582 100.631 159.596 100.578C159.603 100.552 159.609 100.526 159.615 100.502C159.618 100.491 159.622 100.472 159.626 100.45C159.628 100.44 159.632 100.418 159.636 100.391C159.638 100.377 159.641 100.343 159.643 100.323C159.644 100.291 159.643 100.201 159.638 100.143L159.638 100.142C159.629 100.076 159.615 100.025 159.614 100.019C159.61 100.002 159.605 99.9886 159.603 99.9812C159.599 99.9658 159.594 99.9523 159.592 99.9442C159.586 99.9268 159.579 99.9075 159.573 99.8894C159.56 99.8518 159.541 99.8011 159.519 99.7399C159.474 99.6167 159.41 99.441 159.328 99.2213C159.166 98.7815 158.934 98.1599 158.657 97.4181C158.103 95.9341 157.366 93.9658 156.63 92.0013C155.893 90.0367 155.157 88.0755 154.605 86.6055C154.329 85.8705 154.099 85.2582 153.938 84.8297L153.685 84.1567C153.685 84.1565 153.685 84.1565 152.792 84.4922L153.685 84.1567L153.649 84.0599L148.521 76.1441L145.641 77.4437L145.635 77.4465C145.626 77.4506 145.613 77.456 145.599 77.4627C145.569 77.4762 145.528 77.4951 145.478 77.5193C145.379 77.5677 145.242 77.6378 145.082 77.7289C144.767 77.9089 144.342 78.1823 143.94 78.5467C143.159 79.2557 142.247 80.54 142.914 82.1918C143.342 83.2515 144.316 86.0059 145.226 89.0704C146.141 92.1534 146.96 95.4488 147.122 97.6284C147.46 102.206 147.763 106.657 146.859 112.403C146.406 115.276 145.724 117.81 145.153 119.625C144.868 120.532 144.612 121.258 144.428 121.754C144.336 122.003 144.262 122.193 144.212 122.321C144.187 122.385 144.168 122.433 144.155 122.464C144.149 122.479 144.144 122.491 144.141 122.498L144.138 122.506L144.137 122.507L143.636 123.709L152.716 124.523L152.934 123.767ZM146.357 122.036C146.531 121.551 146.744 120.93 146.974 120.197C147.565 118.317 148.274 115.689 148.744 112.699C149.685 106.72 149.364 102.08 149.025 97.4877C148.847 95.0824 147.971 91.6118 147.056 88.5271C146.134 85.424 145.141 82.6091 144.684 81.4773C144.466 80.9377 144.669 80.4628 145.223 79.9605C145.489 79.7193 145.787 79.5241 146.028 79.3868C146.146 79.3193 146.246 79.2686 146.313 79.2358C146.347 79.2195 146.372 79.2077 146.387 79.2007C146.395 79.1972 146.4 79.1949 146.403 79.1938L146.404 79.1934L146.404 79.1931L146.411 79.1903L147.811 78.5586L151.935 84.9245L152.152 85.5009C152.312 85.9294 152.542 86.5415 152.818 87.2764C153.37 88.7463 154.106 90.7072 154.843 92.6714C155.579 94.6357 156.316 96.6028 156.869 98.0855C157.146 98.8269 157.377 99.4464 157.538 99.8835C157.601 100.053 157.653 100.194 157.693 100.304C157.646 100.475 157.577 100.72 157.489 101.031C157.308 101.672 157.048 102.583 156.736 103.675C156.111 105.858 155.277 108.759 154.442 111.657C153.607 114.556 152.772 117.451 152.145 119.621C151.832 120.706 151.571 121.61 151.388 122.243L151.319 122.481L146.357 122.036Z" fill="#1C1C1C"/>
<path d="M148.635 74.1973C148.635 74.1973 145.697 75.8772 146.831 77.9509C147.964 80.0247 152.035 88.5562 152.905 93.0707C153.775 97.5852 154.613 102.063 154.378 107.994C154.144 113.924 152.815 118.571 152.815 118.571L159.839 118.38C159.839 118.38 163.79 94.6249 163.764 94.5202C163.739 94.4155 156.072 79.5446 156.072 79.5446L150.646 72.9905L148.635 74.1973Z" fill="#CA3123"/>
<path fill-rule="evenodd" clip-rule="evenodd" d="M151.539 119.56L160.652 119.313L160.781 118.537L159.839 118.38C160.781 118.537 160.781 118.537 160.781 118.537L160.95 117.516C161.058 116.866 161.213 115.938 161.398 114.823C161.768 112.594 162.261 109.621 162.753 106.645C163.245 103.669 163.737 100.689 164.104 98.4465C164.287 97.3254 164.44 96.3875 164.545 95.7262C164.598 95.3959 164.64 95.1328 164.668 94.9497C164.682 94.8588 164.693 94.7842 164.7 94.73C164.704 94.7038 164.708 94.6763 164.711 94.652C164.712 94.6411 164.714 94.6214 164.716 94.5991C164.717 94.5888 164.718 94.5667 164.719 94.5391C164.719 94.525 164.718 94.491 164.717 94.4707C164.715 94.4389 164.703 94.3508 164.691 94.2932C164.691 94.2925 164.691 94.2917 164.691 94.2909M164.691 94.2909C164.675 94.2272 164.655 94.1785 164.653 94.1734C164.649 94.1629 164.646 94.1537 164.643 94.1465C164.641 94.1425 164.639 94.1391 164.638 94.1366C164.632 94.1218 164.626 94.1088 164.622 94.1011C164.615 94.0844 164.606 94.0661 164.597 94.0488C164.58 94.013 164.556 93.9647 164.527 93.9065C164.468 93.7894 164.383 93.6224 164.277 93.4136C164.064 92.9957 163.762 92.4052 163.401 91.7006C162.678 90.2911 161.717 88.4219 160.757 86.5564C159.797 84.6908 158.838 82.8285 158.118 81.4326C157.759 80.7347 157.459 80.1533 157.249 79.7465L156.92 79.1079L156.92 79.1074C156.92 79.1073 156.92 79.1072 156.072 79.5445L156.92 79.1074L156.873 79.0155L150.859 71.7502L148.15 73.3756L148.144 73.3791C148.135 73.3842 148.124 73.391 148.11 73.3994C148.082 73.4163 148.043 73.4398 147.997 73.4696C147.904 73.5292 147.776 73.6147 147.628 73.7239C147.335 73.9393 146.946 74.2602 146.589 74.6689C145.895 75.464 145.139 76.8455 145.993 78.4085C146.541 79.4113 147.829 82.0337 149.089 84.9717C150.357 87.9273 151.554 91.105 151.967 93.2512C152.836 97.7583 153.655 102.143 153.425 107.956C153.31 110.862 152.926 113.458 152.571 115.328C152.393 116.262 152.223 117.012 152.099 117.527C152.036 117.784 151.985 117.982 151.95 118.114C151.932 118.181 151.919 118.231 151.91 118.263C151.905 118.279 151.902 118.291 151.9 118.299L151.897 118.307L151.897 118.308L151.539 119.56M154.047 117.582C154.164 117.08 154.303 116.439 154.446 115.684C154.814 113.748 155.212 111.056 155.332 108.031C155.332 108.031 155.332 108.031 155.332 108.031C155.572 101.983 154.713 97.4119 153.842 92.89C153.385 90.5217 152.112 87.1765 150.844 84.2193C149.568 81.2444 148.253 78.5642 147.668 77.4931C147.389 76.9825 147.535 76.4872 148.027 75.924C148.263 75.6535 148.537 75.4248 148.76 75.2605C148.87 75.1797 148.962 75.1178 149.025 75.0774C149.057 75.0572 149.081 75.0426 149.095 75.0339C149.103 75.0295 149.107 75.0266 149.11 75.0252L149.111 75.0247L149.111 75.0243L149.118 75.0208L150.434 74.2308L155.271 80.0736L155.553 80.6209C155.762 81.0277 156.062 81.609 156.422 82.3068C157.141 83.7025 158.1 85.5645 159.06 87.4297C160.02 89.2951 160.98 91.1632 161.702 92.5714C162.063 93.2757 162.364 93.8642 162.576 94.2795C162.658 94.4403 162.726 94.5743 162.778 94.6787C162.751 94.8545 162.712 95.1062 162.661 95.4246C162.555 96.0825 162.403 97.0177 162.22 98.1384C161.853 100.379 161.362 103.358 160.87 106.334C160.378 109.309 159.885 112.282 159.515 114.511C159.33 115.625 159.176 116.553 159.068 117.203L159.027 117.448L154.047 117.582Z" fill="#1C1C1C"/>
<path d="M150.461 68.7234C150.461 68.7234 147.666 70.632 148.961 72.6088C150.256 74.5856 154.994 82.7656 156.221 87.1964C157.448 91.6272 158.641 96.0239 158.88 101.954C159.118 107.885 158.164 112.622 158.164 112.622L165.151 111.873C165.151 111.873 167.196 87.8781 167.162 87.7758C167.128 87.6736 158.3 73.4609 158.3 73.4609L152.37 67.36L150.461 68.7234Z" fill="#CA3123"/>
<path fill-rule="evenodd" clip-rule="evenodd" d="M156.971 113.71L166.035 112.738L166.102 111.954L165.151 111.873C166.102 111.954 166.102 111.954 166.102 111.953L166.102 111.953L166.189 110.922C166.245 110.266 166.325 109.328 166.421 108.203C166.612 105.951 166.866 102.949 167.12 99.9427C167.373 96.9369 167.626 93.9273 167.813 91.6626C167.906 90.5304 167.984 89.5834 168.036 88.9158C168.063 88.5823 168.083 88.3167 168.097 88.132C168.103 88.0403 168.108 87.9651 168.112 87.9104C168.113 87.884 168.115 87.8564 168.116 87.8319C168.116 87.8209 168.117 87.8012 168.116 87.7788C168.116 87.7686 168.116 87.7464 168.114 87.7189C168.114 87.7048 168.11 87.671 168.108 87.6509C168.103 87.619 168.084 87.5303 168.067 87.474C168.046 87.4111 168.022 87.3635 168.02 87.3586C168.012 87.3428 168.006 87.3301 168.002 87.3233C167.995 87.3092 167.988 87.2969 167.984 87.2895C167.975 87.2735 167.964 87.256 167.954 87.2394C167.934 87.2052 167.906 87.159 167.873 87.1033C167.805 86.9913 167.707 86.8315 167.584 86.632C167.339 86.2323 166.991 85.6678 166.574 84.9942C165.742 83.6468 164.635 81.8601 163.529 80.077C162.423 78.2939 161.319 76.514 160.491 75.1798C160.077 74.5128 159.732 73.9572 159.49 73.5683L159.111 72.9575C159.111 72.9574 159.111 72.9573 158.3 73.4608L159.111 72.9575L159.056 72.8696L152.482 66.1067L149.912 67.9429L149.906 67.9468C149.898 67.9526 149.887 67.9603 149.873 67.9698C149.847 67.9889 149.811 68.0154 149.767 68.0488C149.679 68.1156 149.558 68.2111 149.419 68.3316C149.145 68.5697 148.782 68.9206 148.459 69.3564C147.83 70.2044 147.187 71.6418 148.163 73.1318C148.789 74.0876 150.282 76.599 151.772 79.4272C153.272 82.2724 154.718 85.3446 155.301 87.451C156.526 91.8746 157.692 96.1804 157.926 101.993C158.043 104.899 157.867 107.517 157.662 109.409C157.56 110.355 157.45 111.116 157.367 111.639C157.325 111.9 157.29 112.102 157.265 112.237C157.253 112.304 157.243 112.355 157.237 112.388C157.234 112.405 157.232 112.417 157.23 112.424L157.228 112.433L157.228 112.434L156.971 113.71ZM159.313 111.539C159.39 111.029 159.477 110.379 159.56 109.615C159.772 107.656 159.955 104.94 159.833 101.916C159.59 95.8674 158.37 91.3797 157.141 86.9417C156.497 84.6173 154.961 81.3841 153.461 78.5374C151.952 75.6737 150.428 73.1067 149.76 72.0858C149.441 71.5989 149.547 71.0936 149.992 70.493C150.206 70.2045 150.461 69.9548 150.67 69.7731C150.773 69.6839 150.86 69.6148 150.92 69.5695C150.95 69.5469 150.972 69.5304 150.986 69.5205C150.99 69.5176 150.994 69.5153 150.996 69.5135L150.999 69.5114L151 69.511L151 69.5108L151.001 69.5102L151.001 69.5098L151.007 69.5057L152.257 68.6132L157.544 74.052L157.869 74.5752C158.11 74.964 158.455 75.5195 158.869 76.1865C159.697 77.5204 160.802 79.3001 161.907 81.0829C163.013 82.8658 164.119 84.6514 164.951 85.9976C165.367 86.6709 165.714 87.2335 165.958 87.6307C166.052 87.7844 166.131 87.9126 166.192 88.0124C166.179 88.1898 166.159 88.4439 166.134 88.7653C166.081 89.4295 166.004 90.3738 165.911 91.5055C165.724 93.7685 165.472 96.7767 165.218 99.7823C164.965 102.788 164.71 105.79 164.519 108.041C164.423 109.167 164.344 110.104 164.288 110.76L164.267 111.008L159.313 111.539Z" fill="#1C1C1C"/>
<path d="M160.081 126.471C160.081 159.752 133.102 186.731 99.8215 186.731C66.5414 186.731 39.5625 159.752 39.5625 126.471C39.5625 93.1913 66.5414 66.2124 99.8215 66.2124C133.102 66.2124 160.081 93.1913 160.081 126.471Z" fill="#89AE3A"/>
<path fill-rule="evenodd" clip-rule="evenodd" d="M38.8809 126.472C38.8809 160.128 66.165 187.412 99.8216 187.412C133.478 187.412 160.762 160.128 160.762 126.472C160.762 92.815 133.478 65.5309 99.8216 65.5309C66.165 65.5309 38.8809 92.815 38.8809 126.472ZM99.8216 186.049C66.9179 186.049 40.2442 159.375 40.2442 126.472C40.2442 93.5679 66.9179 66.8943 99.8216 66.8943C132.725 66.8943 159.399 93.5679 159.399 126.472C159.399 159.375 132.725 186.049 99.8216 186.049Z" fill="#1C1C1C"/>
<path d="M63.7845 157.51V86.4805C63.7845 86.4805 64.0912 81.5384 58.0585 81.5384C52.0258 81.5384 52.2644 86.3782 52.2644 86.3782V105.363C52.2644 105.363 51.2078 111.668 45.0388 111.668C38.8697 111.668 36.2453 107.101 36.2794 102.602C36.3135 98.1028 38.0176 88.355 40.2671 82.9358C42.5166 77.5166 46.7088 70.9045 48.4812 68.6209C50.2535 66.3373 52.5711 64.7013 51.8213 61.4634C51.0715 58.2255 48.8902 57.1008 47.6972 56.6918C46.5043 56.2828 44.4934 56.0101 42.687 57.1008C40.8806 58.1914 36.3816 62.8949 35.0183 64.7013C33.655 66.5077 28.4403 73.9038 26.8383 80.3114C25.2364 86.719 23.7368 91.3543 23.7368 98.2051C23.7368 105.056 23.3278 109.759 26.8383 119.848C30.3489 129.936 37.5064 137.571 38.2562 138.287C39.006 139.003 42.4143 143.638 43.5391 147.796C44.6638 151.954 44.9024 153.897 44.9024 155.022V157.408L63.7845 157.51Z" fill="#CA3123"/>
<path fill-rule="evenodd" clip-rule="evenodd" d="M64.7386 158.469V86.5029C64.7391 86.4913 64.7396 86.4775 64.74 86.4615C64.7402 86.4563 64.7403 86.451 64.7404 86.4454C64.7415 86.3954 64.7418 86.3275 64.7397 86.2442C64.7356 86.0778 64.7215 85.8477 64.6829 85.5747C64.6063 85.0326 64.4293 84.2965 64.0204 83.5506C63.6071 82.7967 62.9603 82.0409 61.9677 81.4798C60.9785 80.9207 59.698 80.5841 58.0583 80.5841C54.734 80.5841 52.9521 81.9487 52.0713 83.4833C51.6512 84.2152 51.4632 84.9386 51.3786 85.4727C51.336 85.7415 51.3187 85.9682 51.3122 86.1324C51.3089 86.2146 51.3083 86.2818 51.3087 86.3313C51.3089 86.356 51.3093 86.3764 51.3098 86.3922C51.3098 86.3933 51.3098 86.3943 51.3099 86.3953V105.271C51.3026 105.307 51.2922 105.354 51.2782 105.413C51.2428 105.562 51.1847 105.782 51.0966 106.048C50.9195 106.584 50.627 107.291 50.1671 107.991C49.2633 109.368 47.7275 110.714 45.0386 110.714C42.2134 110.714 40.2923 109.68 39.0653 108.21C37.8169 106.715 37.2178 104.684 37.2335 102.609C37.2499 100.443 37.6727 96.9462 38.3792 93.2952C39.0856 89.6452 40.0594 85.9252 41.1483 83.3017C43.3613 77.9706 47.5078 71.4313 49.2349 69.206C49.5693 68.7751 49.9209 68.3723 50.2864 67.9535C50.3825 67.8435 50.4795 67.7323 50.5774 67.6193C51.0353 67.0906 51.5064 66.5273 51.8994 65.9164C52.7138 64.6506 53.1961 63.1708 52.7509 61.2481C51.901 57.5784 49.3854 56.2618 48.0066 55.789C46.6728 55.3317 44.3365 54.99 42.1936 56.2838C41.1718 56.9007 39.5146 58.4379 38.0078 59.9616C36.478 61.5085 34.9769 63.1718 34.2564 64.1264C33.5566 65.0536 31.8899 67.386 30.1929 70.3007C28.5023 73.2044 26.7457 76.7466 25.9123 80.08C25.6807 81.0065 25.4501 81.8994 25.2251 82.7706C23.9071 87.8733 22.7823 92.2281 22.7823 98.2051C22.7823 98.8622 22.7785 99.5008 22.7748 100.128C22.7396 106.04 22.7108 110.89 25.9369 120.162C29.5155 130.446 36.7868 138.204 37.5971 138.977C37.8785 139.246 38.8654 140.495 39.9438 142.25C41.0094 143.985 42.0897 146.093 42.6177 148.045C43.7363 152.181 43.9479 154.026 43.9479 155.022V158.357L64.7386 158.469ZM52.2642 105.363L53.2054 105.52L53.2185 105.442V86.3547L53.2176 86.3371C53.2177 86.338 53.2177 86.3378 53.2176 86.3365C53.2176 86.3364 53.2176 86.3362 53.2176 86.336C53.2175 86.3332 53.2174 86.3266 53.2173 86.3165C53.2171 86.2951 53.2173 86.2582 53.2193 86.2082C53.2233 86.1076 53.2345 85.9562 53.2638 85.7714C53.3229 85.3979 53.4524 84.9114 53.7267 84.4334C54.2348 83.5481 55.35 82.4927 58.0583 82.4927C59.4351 82.4927 60.3784 82.7739 61.0284 83.1414C61.675 83.5069 62.0827 83.9866 62.3468 84.4682C62.6152 84.9579 62.7387 85.4573 62.7931 85.8419C62.82 86.0321 62.8291 86.1881 62.8317 86.2921C62.833 86.3439 62.8327 86.3821 62.8322 86.4046C62.8319 86.4158 62.8317 86.423 62.8315 86.4259L62.8315 86.427L62.83 86.4509V156.55L45.8566 156.458V155.022C45.8566 153.768 45.5911 151.728 44.4601 147.547C43.8634 145.341 42.6771 143.053 41.57 141.251C40.4756 139.47 39.3834 138.044 38.915 137.597C38.2256 136.939 31.182 129.427 27.7395 119.534C24.6216 110.574 24.6488 105.986 24.6834 100.141C24.6871 99.5122 24.6909 98.8694 24.6909 98.2051C24.6909 92.4861 25.7517 88.3734 27.0663 83.277C27.2927 82.3992 27.5267 81.4923 27.764 80.5429C28.5326 77.4686 30.1842 74.109 31.8423 71.2611C33.494 68.4243 35.1163 66.1555 35.7799 65.2762C36.4227 64.4244 37.8527 62.8328 39.3649 61.3037C40.9 59.7514 42.3955 58.3915 43.1801 57.9177C44.65 57.0302 46.3355 57.2338 47.3876 57.5945C48.3946 57.9398 50.2416 58.8726 50.8914 61.6787C51.196 62.994 50.8943 63.9511 50.2943 64.8837C49.9801 65.3719 49.5864 65.8481 49.1346 66.3697C49.0474 66.4705 48.9575 66.5734 48.8659 66.6783C48.4965 67.1013 48.0987 67.5569 47.7271 68.0358C45.9095 70.3776 41.6716 77.0627 39.3855 82.57C38.225 85.3657 37.222 89.2292 36.5053 92.9326C35.7889 96.6351 35.3426 100.261 35.3249 102.595C35.3065 105.019 36.0026 107.52 37.6002 109.434C39.219 111.372 41.6947 112.622 45.0386 112.622C48.5187 112.622 50.5958 110.816 51.7625 109.039C52.3378 108.163 52.695 107.294 52.9088 106.647C53.0162 106.322 53.0888 106.049 53.1353 105.854C53.1585 105.756 53.1753 105.677 53.1866 105.621C53.1923 105.592 53.1966 105.57 53.1997 105.553C53.2012 105.544 53.2025 105.537 53.2034 105.532L53.2046 105.525L53.2051 105.522L53.2053 105.521C53.2053 105.521 53.2054 105.52 52.2642 105.363Z" fill="#1C1C1C"/>
<path d="M136.063 157.51V86.4805C136.063 86.4805 135.756 81.5384 141.789 81.5384C147.821 81.5384 147.583 86.3782 147.583 86.3782V105.363C147.583 105.363 148.639 111.668 154.808 111.668C160.977 111.668 163.602 107.101 163.568 102.602C163.534 98.1028 161.83 88.355 159.58 82.9358C157.331 77.5166 153.138 70.9045 151.366 68.6209C149.594 66.3373 147.276 64.7013 148.026 61.4634C148.776 58.2255 150.957 57.1008 152.15 56.6918C153.343 56.2828 155.354 56.0101 157.16 57.1008C158.967 58.1914 163.466 62.8949 164.829 64.7013C166.192 66.5077 171.407 73.9038 173.009 80.3114C174.611 86.719 176.11 91.3543 176.11 98.2051C176.11 105.056 176.519 109.759 173.009 119.848C169.498 129.936 162.341 137.571 161.591 138.287C160.841 139.003 157.433 143.638 156.308 147.796C155.183 151.954 154.945 153.897 154.945 155.022V157.408L136.063 157.51Z" fill="#CA3123"/>
<path fill-rule="evenodd" clip-rule="evenodd" d="M135.108 158.469L155.899 158.357V155.022C155.899 154.026 156.111 152.181 157.229 148.045C157.757 146.093 158.837 143.985 159.903 142.25C160.982 140.495 161.968 139.246 162.25 138.977C163.06 138.204 170.331 130.446 173.91 120.162C177.136 110.89 177.107 106.04 177.072 100.128C177.068 99.5008 177.065 98.8622 177.065 98.2051C177.065 92.2281 175.94 87.8733 174.622 82.7706C174.397 81.8995 174.166 81.0065 173.935 80.08C173.101 76.7466 171.345 73.2044 169.654 70.3007C167.957 67.386 166.29 65.0536 165.591 64.1264C164.87 63.1718 163.369 61.5085 161.839 59.9616C160.332 58.4379 158.675 56.9007 157.653 56.2838C155.51 54.99 153.174 55.3317 151.84 55.789C150.462 56.2618 147.946 57.5784 147.096 61.2481C146.651 63.1708 147.133 64.6506 147.947 65.9164C148.341 66.5273 148.812 67.0906 149.27 67.6193C149.367 67.7323 149.464 67.8435 149.561 67.9536C149.926 68.3723 150.278 68.7751 150.612 69.206C152.339 71.4313 156.486 77.9706 158.699 83.3017C159.788 85.9252 160.761 89.6452 161.468 93.2952C162.174 96.9462 162.597 100.443 162.613 102.609C162.629 104.684 162.03 106.715 160.782 108.21C159.555 109.68 157.634 110.714 154.808 110.714C152.119 110.714 150.584 109.368 149.68 107.991C149.22 107.291 148.927 106.584 148.75 106.048C148.662 105.782 148.604 105.562 148.569 105.413C148.555 105.354 148.544 105.307 148.537 105.271V86.3952L148.537 86.3922C148.538 86.3764 148.538 86.356 148.538 86.3313C148.539 86.2818 148.538 86.2146 148.535 86.1324C148.528 85.9682 148.511 85.7415 148.468 85.4727C148.384 84.9386 148.196 84.2152 147.776 83.4833C146.895 81.9487 145.113 80.5841 141.789 80.5841C140.149 80.5841 138.868 80.9207 137.879 81.4798C136.887 82.0409 136.24 82.7967 135.827 83.5506C135.418 84.2965 135.241 85.0326 135.164 85.5747C135.125 85.8477 135.111 86.0778 135.107 86.2442C135.105 86.3275 135.105 86.3954 135.107 86.4454C135.107 86.4684 135.108 86.4876 135.108 86.5028V158.469ZM147.583 105.363C146.641 105.52 146.642 105.521 146.642 105.521L146.642 105.522L146.642 105.525L146.644 105.532C146.644 105.537 146.646 105.544 146.647 105.553C146.65 105.57 146.655 105.592 146.66 105.621C146.672 105.677 146.688 105.756 146.712 105.854C146.758 106.049 146.831 106.322 146.938 106.647C147.152 107.294 147.509 108.163 148.084 109.039C149.251 110.816 151.328 112.622 154.808 112.622C158.152 112.622 160.628 111.372 162.247 109.434C163.844 107.52 164.54 105.019 164.522 102.595C164.504 100.261 164.058 96.6351 163.342 92.9326C162.625 89.2292 161.622 85.3657 160.461 82.57C158.175 77.0627 153.937 70.3776 152.12 68.0358C151.748 67.5569 151.35 67.1013 150.981 66.6783C150.889 66.5734 150.8 66.4705 150.712 66.3697C150.261 65.8481 149.867 65.3719 149.553 64.8837C148.953 63.9511 148.651 62.994 148.956 61.6787C149.605 58.8726 151.452 57.9398 152.459 57.5945C153.511 57.2338 155.197 57.0302 156.667 57.9177C157.451 58.3915 158.947 59.7514 160.482 61.3037C161.994 62.8328 163.424 64.4244 164.067 65.2762C164.731 66.1555 166.353 68.4243 168.005 71.2611C169.663 74.109 171.314 77.4686 172.083 80.5429C172.32 81.4922 172.554 82.3992 172.781 83.277C174.095 88.3734 175.156 92.4861 175.156 98.2051C175.156 98.8694 175.16 99.5122 175.164 100.141C175.198 105.986 175.225 110.574 172.107 119.534C168.665 129.427 161.621 136.939 160.932 137.597C160.463 138.044 159.371 139.47 158.277 141.251C157.17 143.053 155.984 145.341 155.387 147.547C154.256 151.728 153.99 153.768 153.99 155.022V156.458L137.017 156.55V86.4509L137.015 86.427L137.015 86.4259C137.015 86.423 137.015 86.4158 137.015 86.4046C137.014 86.3821 137.014 86.3439 137.015 86.2921C137.018 86.1881 137.027 86.0321 137.054 85.8419C137.108 85.4573 137.232 84.9579 137.5 84.4682C137.764 83.9866 138.172 83.5069 138.818 83.1414C139.468 82.7739 140.412 82.4927 141.789 82.4927C144.497 82.4927 145.612 83.5481 146.12 84.4334C146.395 84.9114 146.524 85.3979 146.583 85.7714C146.612 85.9562 146.624 86.1076 146.628 86.2082C146.63 86.2582 146.63 86.2951 146.63 86.3165C146.63 86.3266 146.629 86.3332 146.629 86.3361C146.629 86.3362 146.629 86.3364 146.629 86.3365C146.629 86.3378 146.629 86.338 146.629 86.3371L146.628 86.3547V105.442L146.641 105.52L147.583 105.363Z" fill="#1C1C1C"/>
<path d="M40.7441 152.965C40.7441 152.965 49.0287 156.237 60.4965 156.237C71.9643 156.237 81.5926 148.875 99.239 148.875C116.886 148.875 127.579 155.919 136.548 156.237C145.516 156.555 158.945 152.965 158.945 152.965V166.053C158.945 166.053 147.825 169.325 136.548 169.325C125.27 169.325 115.837 161.963 99.1495 161.963C82.4619 161.963 72.1949 169.325 60.0482 169.325C47.9015 169.325 40.761 166.053 40.761 166.053L40.7441 152.965Z" fill="#0B8BD2"/>
<path fill-rule="evenodd" clip-rule="evenodd" d="M45.5876 168.748C48.9667 169.585 53.8768 170.416 60.0484 170.416C65.8088 170.416 71.1541 168.809 76.7283 167.133C77.2196 166.985 77.7126 166.837 78.2079 166.689C84.3599 164.855 90.9721 163.054 99.1497 163.054C107.323 163.054 113.725 164.853 119.55 166.685C120.123 166.865 120.691 167.046 121.257 167.226C126.402 168.863 131.28 170.416 136.548 170.416C142.282 170.416 147.957 169.585 152.184 168.76C154.301 168.346 156.063 167.933 157.297 167.622C157.915 167.467 158.4 167.337 158.733 167.246C158.9 167.2 159.028 167.164 159.116 167.139C159.159 167.127 159.193 167.117 159.216 167.11L159.242 167.103L159.249 167.101L159.251 167.1L159.252 167.1C159.252 167.1 159.253 167.1 158.945 166.053L159.253 167.1L160.035 166.869V151.545L158.663 151.912L158.655 151.914L158.627 151.921C158.603 151.928 158.566 151.937 158.516 151.95C158.418 151.976 158.272 152.014 158.082 152.062C157.702 152.158 157.148 152.296 156.455 152.46C155.067 152.789 153.124 153.224 150.904 153.65C146.442 154.504 140.942 155.302 136.586 155.147C134.471 155.072 132.218 154.599 129.708 153.902C128.179 153.478 126.603 152.985 124.922 152.459C123.819 152.114 122.671 151.755 121.461 151.393C115.416 149.578 108.215 147.785 99.2391 147.785C90.2536 147.785 83.3124 149.663 77.2333 151.513C76.5829 151.711 75.9442 151.908 75.3154 152.102C70.0283 153.732 65.4402 155.147 60.4966 155.147C54.8642 155.147 50.0109 154.343 46.5679 153.539C44.8474 153.138 43.4821 152.737 42.5512 152.438C42.0858 152.289 41.7292 152.165 41.4915 152.08C41.3726 152.037 41.2835 152.004 41.2253 151.982C41.1962 151.971 41.1748 151.963 41.1614 151.957L41.1471 151.952L41.1449 151.951L41.1445 151.951L39.6515 151.361L39.6714 166.754L40.3068 167.045L40.7611 166.053C40.3068 167.045 40.3071 167.045 40.3075 167.045L40.3084 167.046L40.3106 167.047L40.317 167.05L40.3377 167.059C40.355 167.067 40.3793 167.077 40.4104 167.091C40.4726 167.118 40.5624 167.156 40.6792 167.204C40.9127 167.299 41.2544 167.433 41.6999 167.592C42.591 167.91 43.8981 168.33 45.5876 168.748ZM41.8508 165.322L41.8369 154.5C41.8527 154.505 41.8686 154.51 41.8846 154.515C42.8654 154.83 44.288 155.247 46.0721 155.664C49.6384 156.496 54.6613 157.328 60.4966 157.328C65.7904 157.328 70.7066 155.809 75.9454 154.191C76.5813 153.995 77.2219 153.797 77.8685 153.6C83.8822 151.769 90.5782 149.966 99.2391 149.966C107.91 149.966 114.879 151.695 120.834 153.482C121.986 153.827 123.114 154.18 124.213 154.523C125.929 155.059 127.573 155.573 129.125 156.004C131.694 156.717 134.14 157.243 136.509 157.327C141.121 157.491 146.82 156.653 151.314 155.792C153.572 155.359 155.547 154.917 156.958 154.583C157.289 154.504 157.589 154.432 157.854 154.367V165.224C157.564 165.302 157.198 165.398 156.765 165.507C155.562 165.81 153.839 166.214 151.766 166.619C147.614 167.43 142.09 168.235 136.548 168.235C131.639 168.235 127.091 166.79 121.889 165.137C121.335 164.961 120.774 164.783 120.205 164.604C114.322 162.754 107.664 160.873 99.1497 160.873C90.6396 160.873 83.7745 162.753 77.5845 164.599C77.1031 164.743 76.6264 164.886 76.154 165.028C70.515 166.721 65.4725 168.235 60.0484 168.235C54.0733 168.235 49.3398 167.43 46.1119 166.631C44.4979 166.231 43.2607 165.833 42.4333 165.537C42.2087 165.457 42.0143 165.385 41.8508 165.322Z" fill="#1C1C1C"/>
<path d="M40.7441 166.053C40.7441 166.053 49.0287 169.325 60.4965 169.325C71.9643 169.325 81.5926 161.963 99.239 161.963C116.886 161.963 127.579 169.007 136.548 169.325C145.516 169.643 158.945 166.053 158.945 166.053V179.141C158.945 179.141 147.825 182.413 136.548 182.413C125.27 182.413 115.837 175.051 99.1495 175.051C82.4619 175.051 72.1949 182.413 60.0482 182.413C47.9015 182.413 40.761 179.141 40.761 179.141L40.7441 166.053Z" fill="#0B8BD2"/>
<path fill-rule="evenodd" clip-rule="evenodd" d="M45.5876 181.836C48.9667 182.673 53.8768 183.504 60.0484 183.504C65.8088 183.504 71.1541 181.897 76.7283 180.221C77.2196 180.073 77.7126 179.925 78.2079 179.777C84.3599 177.943 90.9721 176.142 99.1497 176.142C107.323 176.142 113.725 177.941 119.55 179.773C120.123 179.953 120.691 180.134 121.257 180.314C126.402 181.951 131.28 183.504 136.548 183.504C142.282 183.504 147.957 182.673 152.184 181.848C154.301 181.434 156.063 181.021 157.297 180.71C157.915 180.555 158.4 180.425 158.733 180.334C158.9 180.288 159.028 180.252 159.116 180.227C159.159 180.215 159.193 180.205 159.216 180.198L159.242 180.191L159.249 180.188L159.251 180.188L159.252 180.188C159.252 180.188 159.253 180.188 158.945 179.141L159.253 180.188L160.035 179.957V164.633L158.663 165L158.655 165.002L158.627 165.009C158.603 165.016 158.566 165.025 158.516 165.038C158.418 165.064 158.272 165.102 158.082 165.15C157.702 165.246 157.148 165.384 156.455 165.548C155.067 165.877 153.124 166.312 150.904 166.737C146.442 167.592 140.942 168.39 136.586 168.235C134.471 168.16 132.218 167.687 129.708 166.99C128.179 166.565 126.603 166.073 124.922 165.547C123.819 165.202 122.671 164.843 121.461 164.48C115.416 162.666 108.215 160.873 99.2391 160.873C90.2536 160.873 83.3124 162.75 77.2333 164.601C76.5829 164.799 75.9442 164.996 75.3154 165.19C70.0283 166.82 65.4402 168.235 60.4966 168.235C54.8642 168.235 50.0109 167.431 46.5679 166.627C44.8474 166.226 43.4821 165.825 42.5512 165.526C42.0858 165.377 41.7292 165.253 41.4915 165.167C41.3726 165.125 41.2835 165.092 41.2253 165.07C41.1962 165.059 41.1748 165.05 41.1614 165.045L41.1471 165.04L41.1449 165.039L41.1445 165.039L39.6515 164.449L39.6714 179.842L40.3068 180.133L40.7611 179.141C40.3068 180.133 40.3071 180.133 40.3075 180.133L40.3084 180.133L40.3106 180.134L40.317 180.137L40.3377 180.147C40.355 180.154 40.3793 180.165 40.4104 180.179C40.4726 180.206 40.5624 180.244 40.6792 180.291C40.9127 180.387 41.2544 180.521 41.6999 180.68C42.591 180.998 43.8981 181.418 45.5876 181.836ZM41.8508 178.41L41.8369 167.588C41.8527 167.593 41.8686 167.598 41.8846 167.603C42.8654 167.918 44.288 168.335 46.0721 168.751C49.6384 169.584 54.6613 170.416 60.4966 170.416C65.7904 170.416 70.7066 168.897 75.9454 167.279C76.5813 167.082 77.2219 166.885 77.8685 166.688C83.8822 164.857 90.5782 163.054 99.2391 163.054C107.91 163.054 114.879 164.783 120.834 166.57C121.986 166.915 123.114 167.268 124.213 167.611C125.929 168.147 127.573 168.661 129.125 169.092C131.694 169.805 134.14 170.331 136.509 170.415C141.121 170.579 146.82 169.741 151.314 168.88C153.572 168.447 155.547 168.005 156.958 167.671C157.289 167.592 157.589 167.52 157.854 167.455V178.312C157.564 178.39 157.198 178.486 156.765 178.595C155.562 178.898 153.839 179.302 151.766 179.707C147.614 180.517 142.09 181.323 136.548 181.323C131.639 181.323 127.091 179.878 121.889 178.225C121.335 178.049 120.774 177.871 120.205 177.692C114.322 175.842 107.664 173.961 99.1497 173.961C90.6396 173.961 83.7745 175.841 77.5845 177.687C77.1031 177.831 76.6264 177.974 76.154 178.116C70.515 179.809 65.4725 181.323 60.0484 181.323C54.0733 181.323 49.3398 180.518 46.1119 179.719C44.4979 179.319 43.2607 178.921 42.4333 178.625C42.2087 178.545 42.0143 178.472 41.8508 178.41Z" fill="#1C1C1C"/>
<path d="M40.7441 179.141C40.7441 179.141 49.0287 182.413 60.4965 182.413C71.9643 182.413 81.5926 175.051 99.239 175.051C116.886 175.051 127.579 182.095 136.548 182.413C145.516 182.731 158.945 179.141 158.945 179.141V192.229C158.945 192.229 147.825 195.501 136.548 195.501C125.27 195.501 115.837 188.139 99.1495 188.139C82.4619 188.139 72.1949 195.501 60.0482 195.501C47.9015 195.501 40.761 192.229 40.761 192.229L40.7441 179.141Z" fill="#0B8BD2"/>
<path fill-rule="evenodd" clip-rule="evenodd" d="M45.5876 194.924C48.9667 195.761 53.8768 196.592 60.0484 196.592C65.8088 196.592 71.1541 194.985 76.7283 193.309C77.2196 193.161 77.7126 193.013 78.2079 192.865C84.3599 191.03 90.9721 189.23 99.1497 189.23C107.323 189.23 113.725 191.029 119.55 192.861C120.123 193.041 120.691 193.221 121.257 193.401C126.402 195.039 131.28 196.592 136.548 196.592C142.282 196.592 147.957 195.761 152.184 194.936C154.301 194.522 156.063 194.109 157.297 193.798C157.915 193.643 158.4 193.513 158.733 193.421C158.9 193.376 159.028 193.34 159.116 193.315C159.159 193.302 159.193 193.293 159.216 193.286L159.242 193.278L159.249 193.276L159.251 193.276L159.252 193.276C159.252 193.275 159.253 193.275 158.945 192.229L159.253 193.275L160.035 193.045V177.721L158.663 178.088L158.655 178.09L158.627 178.097C158.603 178.103 158.566 178.113 158.516 178.126C158.418 178.152 158.272 178.189 158.082 178.238C157.702 178.334 157.148 178.472 156.455 178.636C155.067 178.965 153.124 179.4 150.904 179.825C146.442 180.68 140.942 181.478 136.586 181.323C134.471 181.248 132.218 180.775 129.708 180.078C128.179 179.653 126.603 179.161 124.922 178.635C123.819 178.29 122.671 177.931 121.461 177.568C115.416 175.754 108.215 173.961 99.2391 173.961C90.2536 173.961 83.3124 175.838 77.2333 177.689C76.5829 177.887 75.9442 178.084 75.3154 178.278C70.0283 179.908 65.4402 181.322 60.4966 181.322C54.8642 181.322 50.0109 180.519 46.5679 179.715C44.8474 179.313 43.4821 178.913 42.5512 178.614C42.0858 178.465 41.7292 178.341 41.4915 178.255C41.3726 178.213 41.2835 178.18 41.2253 178.158C41.1962 178.147 41.1748 178.138 41.1614 178.133L41.1471 178.128L41.1449 178.127L41.1445 178.127L39.6515 177.537L39.6714 192.929L40.3068 193.221L40.7611 192.229C40.3068 193.221 40.3071 193.221 40.3075 193.221L40.3084 193.221L40.3106 193.222L40.317 193.225L40.3377 193.235C40.355 193.242 40.3793 193.253 40.4104 193.266C40.4726 193.293 40.5624 193.332 40.6792 193.379C40.9127 193.475 41.2544 193.608 41.6999 193.768C42.591 194.086 43.8981 194.505 45.5876 194.924ZM41.8508 191.497L41.8369 180.676C41.8527 180.681 41.8686 180.686 41.8846 180.691C42.8654 181.006 44.288 181.423 46.0721 181.839C49.6384 182.672 54.6613 183.504 60.4966 183.504C65.7904 183.504 70.7066 181.985 75.9454 180.367C76.5813 180.17 77.2219 179.972 77.8685 179.776C83.8822 177.945 90.5782 176.142 99.2391 176.142C107.91 176.142 114.879 177.87 120.834 179.658C121.986 180.003 123.114 180.356 124.213 180.699C125.929 181.235 127.573 181.749 129.125 182.18C131.694 182.893 134.14 183.419 136.509 183.503C141.121 183.667 146.82 182.828 151.314 181.968C153.572 181.535 155.547 181.093 156.958 180.758C157.289 180.68 157.589 180.608 157.854 180.542V191.4C157.564 191.478 157.198 191.574 156.765 191.683C155.562 191.985 153.839 192.39 151.766 192.795C147.614 193.605 142.09 194.41 136.548 194.41C131.639 194.41 127.091 192.966 121.889 191.313C121.335 191.137 120.774 190.959 120.205 190.78C114.322 188.93 107.664 187.048 99.1497 187.048C90.6396 187.048 83.7745 188.929 77.5845 190.775C77.1031 190.919 76.6264 191.062 76.154 191.203C70.515 192.896 65.4725 194.41 60.0484 194.41C54.0733 194.41 49.3398 193.606 46.1119 192.806C44.4979 192.407 43.2607 192.009 42.4333 191.713C42.2087 191.633 42.0143 191.56 41.8508 191.497Z" fill="#1C1C1C"/>
<path d="M140.335 15.2126C140.335 21.1796 135.498 26.0169 129.531 26.0169C123.564 26.0169 118.726 21.1796 118.726 15.2126C118.726 9.24556 123.564 4.40821 129.531 4.40821C135.498 4.40821 140.335 9.24556 140.335 15.2126Z" fill="#E85427"/>
<path fill-rule="evenodd" clip-rule="evenodd" d="M118.045 15.2126C118.045 21.556 123.187 26.6986 129.531 26.6986C135.874 26.6986 141.017 21.556 141.017 15.2126C141.017 8.86907 135.874 3.72651 129.531 3.72651C123.187 3.72651 118.045 8.86907 118.045 15.2126ZM129.531 25.3353C123.94 25.3353 119.408 20.8031 119.408 15.2126C119.408 9.622 123.94 5.08984 129.531 5.08984C135.122 5.08984 139.653 9.622 139.653 15.2126C139.653 20.8031 135.122 25.3353 129.531 25.3353Z" fill="#1C1C1C"/>
<path d="M79.224 24.6878C79.224 24.6878 82.2026 18.4517 88.1197 16.167C95.0045 13.5085 100.458 16.3715 100.458 16.3715C100.458 16.3715 105.038 11.2656 111.33 11.4295C117.874 11.5999 121.212 14.9588 123.021 18.8255C124.759 22.5406 124.452 25.3354 124.452 25.3354C124.452 25.3354 129.088 24.0062 132.973 25.574C136.859 27.1418 137.429 31.5475 136.859 33.5835C136.143 36.1398 132.769 38.2188 132.769 38.2188C132.769 38.2188 134.473 40.0593 134.336 43.1268C134.2 46.1943 132.632 47.5576 132.632 47.5576C132.632 47.5576 135.223 50.4888 134.95 54.6469C134.688 58.6393 133.45 63.0314 129.36 66.5079C125.27 69.9844 120.226 70.4615 117.772 70.5297C115.318 70.5979 109.319 68.9619 109.319 68.9619C109.319 68.9619 105.707 70.257 100.526 70.1207C95.3453 69.9844 92.9254 69.03 90.7441 67.7008C89.1779 66.7465 87.5744 64.8719 87.5744 64.8719C87.5744 64.8719 83.6889 66.8828 79.6671 66.4056C75.6453 65.9285 72.1554 62.3958 71.0441 60.6456C69.6807 58.4983 68.9939 54.6728 69.2717 51.409C69.5444 48.2052 70.9418 46.2625 70.9418 46.2625C70.9418 46.2625 68.3174 43.604 68.1811 39.3095C68.0447 35.015 69.0672 30.3456 73.3276 27.21C76.4186 24.9351 79.224 24.6878 79.224 24.6878Z" fill="#0A633C"/>
<path fill-rule="evenodd" clip-rule="evenodd" d="M112.478 70.4367C114.27 70.8339 116.466 71.2478 117.791 71.2109C120.288 71.1416 125.53 70.6584 129.802 67.0271C134.079 63.3911 135.361 58.7953 135.63 54.6914C135.776 52.4599 135.154 50.5675 134.506 49.243C134.18 48.5794 133.846 48.0523 133.591 47.6887C133.566 47.6542 133.543 47.6211 133.52 47.5894C133.672 47.396 133.849 47.143 134.027 46.8276C134.484 46.0179 134.944 44.8066 135.017 43.1569C135.092 41.4876 134.665 40.1481 134.217 39.225C134.054 38.8881 133.887 38.6058 133.74 38.3818C134.079 38.1374 134.529 37.7914 135.001 37.3664C135.958 36.5058 137.103 35.2386 137.515 33.7672C137.841 32.6029 137.829 30.8477 137.228 29.1728C136.62 27.4768 135.386 25.8125 133.228 24.9417C131.146 24.1015 128.895 24.0467 127.199 24.1873C126.371 24.2559 125.662 24.3724 125.15 24.4744C125.14 24.1755 125.116 23.8113 125.065 23.3917C124.917 22.1669 124.542 20.468 123.638 18.5365C122.698 16.5269 121.345 14.6162 119.348 13.1869C117.346 11.7541 114.74 10.8362 111.348 10.7479C108.013 10.6611 105.159 11.9694 103.163 13.2674C102.161 13.9189 101.363 14.5752 100.815 15.07C100.609 15.2555 100.438 15.4187 100.304 15.5509C100.149 15.4851 99.958 15.4082 99.7327 15.3256C99.0816 15.0869 98.1448 14.8002 96.9863 14.6005C94.668 14.2007 91.4547 14.1484 87.8741 15.531C84.7617 16.7327 82.4469 18.9614 80.9218 20.8567C80.1563 21.808 79.5815 22.6857 79.1971 23.3272C79.016 23.6293 78.8768 23.8798 78.7794 24.0619C78.7279 24.0706 78.6717 24.0806 78.6109 24.092C78.2753 24.1553 77.801 24.2638 77.2281 24.4461C76.0826 24.8107 74.5389 25.4719 72.9235 26.6608C68.4078 29.9843 67.3598 34.9242 67.4997 39.331C67.5721 41.614 68.3058 43.4588 69.0178 44.7295C69.3741 45.3654 69.7269 45.8611 69.9932 46.2006C70.0294 46.2467 70.064 46.29 70.0969 46.3304C69.9539 46.5803 69.772 46.9275 69.5833 47.3635C69.1763 48.3041 68.7361 49.6627 68.5924 51.3511C68.3067 54.7074 68.9996 58.6972 70.4685 61.0108C71.072 61.9612 72.2795 63.3395 73.8492 64.5437C75.4187 65.7478 77.4106 66.8242 79.5867 67.0824C81.7259 67.3362 83.8035 66.9277 85.3251 66.4704C86.0901 66.2404 86.725 65.9949 87.1704 65.8061C87.2559 65.7699 87.3344 65.7357 87.4057 65.7041C87.5818 65.8944 87.8172 66.1417 88.0934 66.4139C88.7021 67.0137 89.5388 67.7645 90.3893 68.2827C92.6855 69.682 95.2248 70.6629 100.508 70.802C103.158 70.8717 105.408 70.5754 106.998 70.261C107.793 70.1036 108.425 69.9415 108.86 69.8176C109.064 69.7596 109.226 69.71 109.341 69.6731C109.362 69.6787 109.384 69.6846 109.408 69.6909C109.579 69.736 109.825 69.8002 110.127 69.877C110.733 70.0305 111.566 70.2346 112.478 70.4367ZM109.089 68.3201L109.084 68.322C109.078 68.3238 109.07 68.3269 109.058 68.331C109.033 68.3393 108.995 68.352 108.945 68.3684C108.843 68.4012 108.689 68.4489 108.488 68.5063C108.084 68.621 107.489 68.7741 106.733 68.9235C105.221 69.2226 103.074 69.5057 100.544 69.4391C95.4657 69.3055 93.1652 68.3778 91.0988 67.1185C90.3831 66.6825 89.6349 66.0188 89.0503 65.4428C88.7618 65.1585 88.5205 64.9029 88.3518 64.7189C88.2675 64.627 88.2016 64.5532 88.1572 64.503C88.1351 64.4779 88.1183 64.4586 88.1073 64.446L88.0953 64.4321L88.0927 64.429L88.0923 64.4286L87.741 64.0179L87.2615 64.2661L87.2612 64.2662L87.261 64.2663L87.2606 64.2665L87.2547 64.2695C87.249 64.2724 87.2396 64.2772 87.2266 64.2836C87.2008 64.2964 87.1608 64.316 87.1077 64.3412C87.0013 64.3915 86.8425 64.4643 86.6383 64.5509C86.2295 64.7242 85.6417 64.9516 84.9326 65.1647C83.506 65.5935 81.6299 65.9519 79.7473 65.7286C77.9016 65.5096 76.1377 64.5811 74.679 63.462C73.2205 62.3431 72.1273 61.0799 71.6194 60.28C70.3617 58.2991 69.6809 54.6379 69.9508 51.4667C70.0798 49.9512 70.4747 48.7366 70.8345 47.9049C71.0144 47.4892 71.185 47.1704 71.3081 46.9591C71.3696 46.8534 71.4192 46.7748 71.452 46.7245C71.4684 46.6994 71.4806 46.6814 71.488 46.6706C71.4917 46.6653 71.4942 46.6617 71.4954 46.66L71.4956 46.6597L71.4959 46.6592L71.4962 46.6588L71.8312 46.1931L71.4279 45.7845L71.4274 45.7841L71.4268 45.7834L71.4252 45.7817C71.4238 45.7803 71.4219 45.7783 71.4195 45.7758C71.4167 45.7729 71.4133 45.7693 71.4093 45.765C71.3941 45.7488 71.37 45.7227 71.3383 45.687C71.2748 45.6155 71.1807 45.5055 71.0658 45.3591C70.8359 45.0659 70.524 44.6286 70.2072 44.0631C69.5728 42.9309 68.9262 41.2992 68.8623 39.2877C68.7295 35.1056 69.7264 30.7066 73.7316 27.7588C75.2071 26.6729 76.6116 26.073 77.6416 25.7452C78.1564 25.5814 78.5766 25.4859 78.8636 25.4317C79.0071 25.4047 79.1171 25.388 79.1888 25.3782C79.2247 25.3734 79.2509 25.3703 79.2669 25.3685C79.275 25.3676 79.2804 25.3671 79.2833 25.3668L79.2838 25.3667L79.2842 25.3667L79.2852 25.3666L79.2855 25.3666L79.6713 25.3325L79.8388 24.9819L79.839 24.9815L79.8397 24.98L79.8448 24.9697C79.8496 24.9599 79.8572 24.9444 79.8678 24.9235C79.8888 24.8816 79.9214 24.818 79.9654 24.7352C80.0534 24.5695 80.1872 24.3272 80.3665 24.028C80.7255 23.4288 81.2652 22.6046 81.9839 21.7114C83.4274 19.9174 85.5604 17.8857 88.3652 16.8028C91.6694 15.5269 94.6252 15.5768 96.7547 15.944C97.8201 16.1276 98.6769 16.3906 99.2635 16.6056C99.5565 16.713 99.7814 16.8083 99.9304 16.8753C100.005 16.9088 100.06 16.9352 100.096 16.9524C100.113 16.9611 100.126 16.9675 100.134 16.9713L100.141 16.9749L100.141 16.9751L100.142 16.9754L100.611 17.2216M100.965 16.8268L100.965 16.8265L100.973 16.8175C100.981 16.8098 100.992 16.7974 101.008 16.7807C101.039 16.7473 101.087 16.6966 101.152 16.6312C101.281 16.5003 101.475 16.3107 101.728 16.0822C102.235 15.6248 102.976 15.015 103.906 14.4104C105.773 13.1964 108.354 12.0337 111.313 12.1108C114.465 12.1929 116.799 13.0397 118.554 14.2956C120.314 15.5551 121.534 17.2572 122.403 19.1143C123.238 20.8978 123.579 22.4539 123.712 23.5553C123.778 24.1061 123.793 24.5429 123.791 24.8371C123.791 24.9842 123.786 25.0954 123.782 25.1673C123.779 25.2032 123.777 25.2293 123.776 25.2451C123.775 25.2529 123.775 25.2582 123.775 25.2609L123.775 25.2614L123.775 25.2618L123.775 25.2624L123.774 25.2629L123.664 26.2705L124.64 25.9907L124.64 25.9905L124.641 25.9903L124.648 25.9883C124.655 25.9864 124.666 25.9833 124.682 25.9791C124.713 25.9709 124.76 25.9584 124.823 25.9429C124.949 25.9117 125.135 25.8681 125.372 25.8202C125.847 25.7242 126.521 25.6115 127.312 25.5459C128.905 25.4139 130.915 25.4783 132.718 26.206C134.446 26.903 135.44 28.2255 135.945 29.6333C136.458 31.0623 136.446 32.5279 136.202 33.3996C135.898 34.4845 134.999 35.5349 134.089 36.3528C133.646 36.7518 133.222 37.0758 132.91 37.2999C132.754 37.4117 132.627 37.498 132.539 37.5555C132.496 37.5843 132.462 37.6058 132.44 37.6198C132.43 37.6267 132.421 37.6318 132.416 37.6349L132.411 37.6381L132.411 37.6384L132.411 37.6386L131.705 38.0734L132.266 38.6797L132.267 38.6802C132.268 38.6814 132.271 38.6843 132.275 38.6889C132.283 38.6982 132.297 38.7142 132.315 38.7368C132.352 38.7822 132.409 38.8538 132.478 38.9507C132.617 39.1446 132.805 39.4375 132.99 39.8198C133.361 40.5837 133.718 41.6982 133.655 43.0964C133.592 44.5143 133.2 45.5183 132.84 46.1572C132.658 46.478 132.484 46.7091 132.36 46.8555C132.298 46.9287 132.248 46.9805 132.217 47.0116C132.211 47.0175 132.206 47.0226 132.202 47.027C132.194 47.0343 132.189 47.0395 132.185 47.0428L132.183 47.0447L132.182 47.0459L132.182 47.0461L132.181 47.0468L131.666 47.494L132.121 48.0079L132.121 48.0085L132.121 48.0089L132.123 48.0112C132.127 48.0148 132.132 48.0211 132.14 48.0301C132.155 48.0482 132.179 48.077 132.21 48.1162C132.272 48.1947 132.364 48.3144 132.475 48.4722C132.697 48.7881 132.993 49.2537 133.281 49.8427C133.859 51.0233 134.396 52.6755 134.27 54.6022C134.015 58.483 132.821 62.6713 128.919 65.9883C125.011 69.31 120.164 69.7812 117.753 69.8481C116.624 69.8795 114.594 69.5094 112.773 69.1057C111.878 68.9073 111.059 68.7067 110.463 68.5555C110.165 68.48 109.923 68.4169 109.756 68.3728C109.673 68.3508 109.608 68.3335 109.564 68.3218L109.515 68.3084L109.499 68.3041L109.292 68.2476L109.09 68.3199L109.089 68.3201" fill="#1C1C1C"/>
<path d="M77.8298 59.1146L77.8265 74.4151H101.957V59.1241" fill="#FEFEFE"/>
<path fill-rule="evenodd" clip-rule="evenodd" d="M77.1448 75.0968H102.639V59.1241H101.276V73.7335H78.5084L78.5115 59.1147L77.1482 59.1144L77.1448 75.0968Z" fill="#1C1C1C"/>
<path d="M124.452 62.2475V78.5051H102.094V62.2518" fill="#FEFEFE"/>
<path fill-rule="evenodd" clip-rule="evenodd" d="M101.412 79.1868H125.134V62.2475H123.771V77.8235H102.775V62.2518H101.412V79.1868Z" fill="#1C1C1C"/>
<path d="M113.278 49.9911L101.017 62.2518H125.41C125.41 62.2518 113.278 49.7983 113.278 49.9911Z" fill="#2C2A26"/>
<path d="M89.9836 45.989L76.8495 59.1227H102.98C102.98 59.1227 89.9836 45.7826 89.9836 45.989Z" fill="#2C2A26"/>
<path d="M87.6653 64.69H91.9372V73.7335H87.6653V64.69Z" fill="#2C2A26"/>
<path d="M112.319 64.3945V70.4839H115.773V64.3719L112.319 64.3945Z" fill="#2C2A26"/>
<path d="M94.0957 82.845C94.0957 85.2295 92.1627 87.1621 89.7786 87.1621C87.3941 87.1621 85.4612 85.2295 85.4612 82.845C85.4612 80.4608 87.3941 78.5279 89.7786 78.5279C92.1627 78.5279 94.0957 80.4608 94.0957 82.845Z" fill="white"/>
<path fill-rule="evenodd" clip-rule="evenodd" d="M84.7794 82.8448C84.7794 85.6058 87.0175 87.8436 89.7784 87.8436C92.539 87.8436 94.7772 85.6057 94.7772 82.8448C94.7772 80.0841 92.5391 77.846 89.7784 77.846C87.0175 77.846 84.7794 80.0841 84.7794 82.8448ZM89.7784 86.4802C87.7704 86.4802 86.1427 84.8527 86.1427 82.8448C86.1427 80.8371 87.7704 79.2093 89.7784 79.2093C91.7861 79.2093 93.4139 80.8371 93.4139 82.8448C93.4139 84.8527 91.7862 86.4802 89.7784 86.4802Z" fill="#1C1C1C"/>
<path d="M107.093 86.1625C107.093 88.5467 105.16 90.4796 102.776 90.4796C100.391 90.4796 98.4584 88.5467 98.4584 86.1625C98.4584 83.7781 100.391 81.8454 102.776 81.8454C105.16 81.8454 107.093 83.7781 107.093 86.1625Z" fill="white"/>
<path fill-rule="evenodd" clip-rule="evenodd" d="M97.7766 86.1623C97.7766 88.923 100.015 91.1611 102.775 91.1611C105.536 91.1611 107.774 88.923 107.774 86.1623C107.774 83.4014 105.536 81.1635 102.775 81.1635C100.015 81.1635 97.7766 83.4014 97.7766 86.1623ZM102.775 89.7978C100.768 89.7978 99.1399 88.17 99.1399 86.1623C99.1399 84.1544 100.768 82.5269 102.775 82.5269C104.783 82.5269 106.411 84.1544 106.411 86.1623C106.411 88.17 104.783 89.7978 102.775 89.7978Z" fill="#1C1C1C"/>
<path d="M82.871 141.354H96.6406V95.8194C96.6406 95.8194 96.2657 89.4117 89.7558 89.4117C83.2459 89.4117 82.9391 95.8194 82.9391 95.8194L82.871 141.354Z" fill="white"/>
<path fill-rule="evenodd" clip-rule="evenodd" d="M82.1881 142.036H97.3221V95.7994L97.3209 95.7795L96.6404 95.8193C97.3209 95.7795 97.3209 95.7791 97.3209 95.7788L97.3207 95.7756L97.3203 95.7694C97.3201 95.7665 97.3199 95.7631 97.3196 95.7592L97.3189 95.75C97.3177 95.7341 97.3159 95.7122 97.3134 95.6847C97.3083 95.6297 97.3002 95.5522 97.2875 95.4554C97.2621 95.2621 97.2186 94.9906 97.1448 94.6667C96.9978 94.0217 96.7277 93.1539 96.2323 92.2795C95.223 90.4978 93.2927 88.73 89.7556 88.73C86.2175 88.73 84.3025 90.4992 83.3103 92.2843C82.8237 93.1597 82.5626 94.0282 82.4225 94.6734C82.3521 94.9975 82.3114 95.2691 82.2881 95.4625C82.2764 95.5593 82.2691 95.6368 82.2646 95.6918C82.2623 95.7194 82.2608 95.7413 82.2598 95.7572C82.2593 95.7652 82.2589 95.7717 82.2586 95.7766L82.2583 95.7828L82.2582 95.7851L82.2581 95.786C82.2581 95.7864 82.2581 95.7867 82.939 95.8193L82.2581 95.7867L82.2573 95.8025L82.1881 142.036ZM83.6206 95.8402C83.6212 95.8317 83.6221 95.8192 83.6234 95.8029C83.6266 95.7641 83.6322 95.7039 83.6416 95.6255C83.6605 95.4685 83.6946 95.2395 83.7547 94.9628C83.8756 94.4066 84.098 93.6732 84.5019 92.9467C85.2905 91.528 86.7839 90.0934 89.7556 90.0934C92.7285 90.0934 94.2405 91.5294 95.0461 92.9515C95.4582 93.679 95.6887 94.4131 95.8155 94.9696C95.8786 95.2464 95.9151 95.4755 95.9357 95.6326C95.946 95.711 95.9523 95.7712 95.9559 95.8101C95.9572 95.8242 95.9581 95.8354 95.9588 95.8437V140.673H83.5535L83.6206 95.8402Z" fill="#1C1C1C"/>
<path d="M101.982 141.354H115.318V97.2536C115.318 97.2536 114.955 91.0477 108.65 91.0477C102.345 91.0477 102.048 97.2536 102.048 97.2536L101.982 141.354Z" fill="white"/>
<path fill-rule="evenodd" clip-rule="evenodd" d="M101.299 142.036H116V97.2336L115.998 97.2137L115.318 97.2535C115.998 97.2137 115.998 97.2134 115.998 97.213L115.998 97.2121L115.998 97.2099L115.998 97.2038C115.998 97.1989 115.997 97.1926 115.997 97.1848C115.995 97.1693 115.994 97.1479 115.991 97.1211C115.986 97.0676 115.978 96.9923 115.966 96.8983C115.941 96.7105 115.899 96.4469 115.827 96.1324C115.685 95.5064 115.422 94.6638 114.941 93.8146C113.961 92.0834 112.084 90.366 108.65 90.366C105.214 90.366 103.353 92.0848 102.389 93.8195C101.916 94.6696 101.663 95.5129 101.527 96.1392C101.459 96.4538 101.419 96.7175 101.396 96.9054C101.385 96.9994 101.378 97.0748 101.374 97.1283C101.371 97.1551 101.37 97.1765 101.369 97.192C101.368 97.1998 101.368 97.2062 101.368 97.211L101.367 97.2171L101.367 97.2193L101.367 97.2202C101.367 97.2206 101.367 97.221 102.048 97.2535L101.367 97.221L101.367 97.2367L101.299 142.036ZM102.73 97.2745C102.73 97.2663 102.731 97.2546 102.732 97.2394C102.735 97.202 102.741 97.144 102.75 97.0684C102.768 96.9169 102.801 96.6958 102.859 96.4286C102.976 95.8913 103.191 95.1831 103.581 94.4818C104.341 93.1136 105.781 91.7294 108.65 91.7294C111.52 91.7294 112.978 93.1149 113.755 94.4866C114.153 95.1889 114.376 95.8978 114.498 96.4353C114.559 96.7027 114.594 96.9239 114.614 97.0755C114.624 97.1512 114.63 97.2092 114.634 97.2466C114.635 97.2596 114.636 97.2702 114.636 97.278V140.673H102.665L102.73 97.2745Z" fill="#1C1C1C"/>
<path d="M90.3939 143.263H98.9595V125.572C98.9595 125.572 98.726 121.586 94.6767 121.586C90.6271 121.586 90.4365 125.572 90.4365 125.572L90.3939 143.263Z" fill="white"/>
<path fill-rule="evenodd" clip-rule="evenodd" d="M89.7106 143.945H99.6411V125.552L99.6399 125.532L98.9594 125.572C99.6399 125.532 99.6399 125.532 99.6399 125.531L99.6398 125.531L99.6397 125.529L99.6394 125.524L99.6384 125.51C99.6376 125.498 99.6363 125.483 99.6346 125.465C99.6312 125.427 99.6257 125.376 99.6174 125.312C99.6007 125.185 99.5723 125.008 99.5243 124.798C99.4291 124.38 99.2535 123.815 98.9297 123.243C98.2633 122.067 96.9835 120.905 94.6767 120.905C92.3687 120.905 91.0979 122.068 90.4422 123.248C90.1239 123.821 89.9542 124.386 89.8634 124.805C89.8177 125.015 89.7911 125.192 89.7758 125.319C89.7681 125.383 89.7632 125.434 89.7602 125.472C89.7587 125.49 89.7576 125.506 89.7569 125.517L89.756 125.531L89.7558 125.536L89.7557 125.538L89.7556 125.539C89.7556 125.539 89.7556 125.539 90.4365 125.572L89.7556 125.539L89.7548 125.555L89.7106 143.945ZM91.1181 125.595C91.1183 125.591 91.1186 125.587 91.119 125.583C91.1207 125.562 91.1239 125.528 91.1293 125.482C91.1403 125.391 91.1602 125.257 91.1957 125.094C91.2671 124.765 91.3982 124.334 91.6338 123.91C92.0858 123.097 92.9351 122.268 94.6767 122.268C96.4193 122.268 97.2808 123.098 97.7435 123.915C97.9841 124.34 98.12 124.771 98.1951 125.101C98.2323 125.264 98.2537 125.399 98.2656 125.489C98.2716 125.535 98.2751 125.569 98.2771 125.59C98.2773 125.593 98.2776 125.596 98.2778 125.598V142.581H91.0772L91.1181 125.595Z" fill="#1C1C1C"/>
<path d="M98.2308 115.746C98.2308 117.641 96.6946 119.178 94.7999 119.178C92.9049 119.178 91.3687 117.641 91.3687 115.746C91.3687 113.852 92.9049 112.315 94.7999 112.315C96.6946 112.315 98.2308 113.852 98.2308 115.746Z" fill="white"/>
<path fill-rule="evenodd" clip-rule="evenodd" d="M90.6871 115.747C90.6871 118.018 92.5285 119.859 94.8 119.859C97.0713 119.859 98.9126 118.018 98.9126 115.747C98.9126 113.475 97.0713 111.634 94.8 111.634C92.5286 111.634 90.6871 113.475 90.6871 115.747ZM94.8 118.496C93.2815 118.496 92.0505 117.265 92.0505 115.747C92.0505 114.228 93.2814 112.997 94.8 112.997C96.3183 112.997 97.5493 114.228 97.5493 115.747C97.5493 117.265 96.3183 118.496 94.8 118.496Z" fill="#1C1C1C"/>
<path d="M93.7435 95.8533C93.3505 94.5265 90.8666 92.0188 88.9377 92.8199C86.1383 93.9825 86.3177 96.0722 86.7905 97.5574C87.4795 99.7221 90.0096 102.766 91.8689 104.408C93.7282 106.05 98.3084 108.89 99.8103 109.657C101.312 110.424 104.334 112.103 105.673 110.85C105.673 110.85 107.222 109.129 104.991 107.68C102.76 106.232 100.39 104.919 99.4353 104.17C98.1544 103.163 96.5383 101.375 95.8907 100.284C95.3015 99.2916 93.7435 95.8533 93.7435 95.8533Z" fill="white"/>
<path fill-rule="evenodd" clip-rule="evenodd" d="M100.404 109.196C100.306 109.145 100.211 109.096 100.12 109.05C99.4004 108.682 97.9027 107.796 96.3434 106.788C94.78 105.778 93.208 104.682 92.32 103.897C91.426 103.108 90.3581 101.969 89.4311 100.763C88.4952 99.5462 87.7482 98.3192 87.4399 97.3507C87.2185 96.6552 87.1014 95.9174 87.2919 95.2565C87.47 94.6385 87.9529 93.967 89.1991 93.4494C89.8169 93.1928 90.6496 93.4319 91.5039 94.0813C91.9103 94.3902 92.2762 94.7607 92.5599 95.1255C92.8501 95.4985 93.0247 95.8274 93.0897 96.0468L93.1031 96.0919L93.1224 96.1346L93.7433 95.8533C93.1224 96.1346 93.1224 96.1346 93.1224 96.1346L93.1404 96.1742C93.1521 96.1998 93.1692 96.2375 93.1912 96.2858C93.2352 96.3823 93.2986 96.5211 93.3766 96.6907C93.5324 97.0298 93.7465 97.4926 93.9793 97.9869C94.4378 98.9607 94.9895 100.102 95.3044 100.632C96.0029 101.808 97.6805 103.658 99.0141 104.706C99.5305 105.111 100.402 105.65 101.38 106.245C101.527 106.335 101.677 106.426 101.829 106.518C102.711 107.054 103.678 107.64 104.62 108.252C105.095 108.561 105.316 108.849 105.419 109.072C105.521 109.292 105.531 109.498 105.497 109.689C105.462 109.888 105.378 110.07 105.295 110.208C105.255 110.275 105.218 110.327 105.192 110.36C105.188 110.366 105.184 110.371 105.18 110.376C105.007 110.525 104.758 110.613 104.393 110.618C104.003 110.624 103.532 110.531 103.012 110.362C102.089 110.064 101.146 109.578 100.404 109.196ZM105.672 110.85L106.179 111.306L106.16 111.328L106.138 111.348C105.643 111.811 105.019 111.973 104.412 111.982C103.813 111.99 103.183 111.85 102.593 111.66C101.554 111.324 100.505 110.782 99.7729 110.404C99.6762 110.354 99.585 110.307 99.5002 110.264M105.672 110.85C106.179 111.306 106.179 111.306 106.18 111.305L106.18 111.305L106.181 111.303L106.184 111.3L106.192 111.291C106.197 111.285 106.205 111.277 106.213 111.267C106.23 111.247 106.251 111.22 106.277 111.186C106.328 111.119 106.394 111.026 106.464 110.909C106.602 110.679 106.766 110.339 106.839 109.927C106.914 109.507 106.893 109.011 106.657 108.501C106.423 107.994 106.002 107.524 105.362 107.108C104.401 106.485 103.415 105.886 102.534 105.351C102.382 105.259 102.233 105.169 102.089 105.081C101.085 104.47 100.294 103.978 99.8564 103.634C98.628 102.669 97.0734 100.941 96.4767 99.9361C96.2023 99.4739 95.6805 98.3996 95.2127 97.4061C94.9823 96.9167 94.77 96.458 94.6154 96.1214C94.538 95.9531 94.4752 95.8156 94.4317 95.7202C94.4184 95.6911 94.4069 95.6659 94.3974 95.645C94.3915 95.6319 94.3863 95.6206 94.3819 95.6109C94.2447 95.1806 93.9697 94.7174 93.636 94.2884C93.2832 93.8348 92.8338 93.3797 92.3289 92.996C91.3608 92.26 89.9872 91.6459 88.6762 92.1904C87.1229 92.8354 86.2957 93.7901 85.9819 94.8789C85.6804 95.9248 85.8894 96.9745 86.1408 97.7642C86.5216 98.9604 87.3841 100.338 88.3503 101.594C89.3255 102.862 90.4522 104.066 91.4175 104.919C92.3888 105.777 94.0365 106.921 95.6036 107.933C97.1746 108.948 98.7181 109.865 99.5002 110.264" fill="#1C1C1C"/>
<path d="M105.456 96.5464C106.138 95.3421 108.274 93.1836 110.796 94.8649C113.318 96.5464 112.887 98.5914 112.091 99.9321C110.933 101.886 108.047 104.09 105.865 105.272C103.684 106.453 101.049 107.567 99.4125 107.976C97.7766 108.385 94.9588 109.271 93.9363 107.748C93.9363 107.748 92.6638 105.658 95.1633 104.749C97.6628 103.84 99.7534 102.636 100.821 101.818C101.889 101 103.162 99.8639 103.843 98.9322C104.525 98.0005 105.456 96.5464 105.456 96.5464Z" fill="white"/>
<path fill-rule="evenodd" clip-rule="evenodd" d="M99.1796 108.739C99.3214 108.702 99.4549 108.668 99.5779 108.637C101.291 108.209 103.983 107.067 106.19 105.871C107.321 105.259 108.625 104.387 109.797 103.417C110.96 102.453 112.04 101.355 112.678 100.28C113.118 99.5375 113.497 98.5375 113.365 97.4442C113.228 96.3198 112.567 95.2258 111.175 94.2977C109.682 93.303 108.251 93.4389 107.125 94.0172C106.053 94.5676 105.266 95.5074 104.873 96.1935L104.842 96.2414C104.816 96.2824 104.777 96.3422 104.729 96.417C104.632 96.5665 104.495 96.7756 104.337 97.0134C104.021 97.4914 103.624 98.0771 103.293 98.5297C102.67 99.3815 101.46 100.47 100.407 101.277C99.4018 102.047 97.3746 103.22 94.9305 104.108C94.2091 104.371 93.6936 104.743 93.3632 105.204C93.0312 105.667 92.9271 106.162 92.931 106.596C92.9348 107.021 93.0417 107.394 93.1398 107.651C93.1898 107.782 93.2399 107.889 93.2788 107.965C93.2983 108.004 93.3152 108.035 93.3282 108.058C93.3347 108.07 93.3402 108.079 93.3446 108.087L93.3503 108.096L93.3524 108.1L93.3534 108.101L93.3538 108.102C93.354 108.102 93.3542 108.103 93.9364 107.748L93.3542 108.103L93.3621 108.116L93.3705 108.128C94.104 109.221 95.4197 109.352 96.4984 109.266C97.4326 109.192 98.425 108.935 99.1796 108.739ZM94.5141 107.385C94.5094 107.377 94.5027 107.364 94.4945 107.348C94.4735 107.307 94.4437 107.244 94.4135 107.164C94.3511 107.001 94.2961 106.794 94.2942 106.583C94.2924 106.381 94.3388 106.183 94.4712 105.998C94.6052 105.811 94.868 105.582 95.3963 105.39M94.5141 107.385C94.8076 107.804 95.409 107.985 96.3905 107.907C97.1939 107.843 98.0468 107.623 98.8055 107.427C98.9569 107.388 99.1045 107.35 99.2473 107.314C100.806 106.925 103.386 105.84 105.541 104.672C106.591 104.103 107.821 103.282 108.927 102.367C110.042 101.444 110.984 100.463 111.505 99.5844C111.86 98.986 112.094 98.2932 112.011 97.6085C111.932 96.9548 111.548 96.1855 110.418 95.4321C109.388 94.7456 108.491 94.8482 107.748 95.2299C106.959 95.6349 106.342 96.3653 106.05 96.8822L106.041 96.8984L106.031 96.9141L105.457 96.5464C106.031 96.9141 106.031 96.9141 106.031 96.9141L106.019 96.9314L105.988 96.98C105.961 97.0222 105.921 97.0833 105.872 97.1594C105.773 97.3117 105.634 97.5244 105.474 97.7665C105.154 98.2485 104.744 98.8557 104.394 99.3348C103.653 100.346 102.319 101.53 101.236 102.359C100.105 103.225 97.9512 104.461 95.3963 105.39" fill="#1C1C1C"/>
<path fill-rule="evenodd" clip-rule="evenodd" d="M99.1168 132.937C99.0679 132.904 99.0207 132.872 98.9756 132.841C98.6175 132.601 97.8805 132.035 97.1185 131.402C96.3546 130.767 95.5918 130.086 95.1715 129.614C94.7484 129.139 94.2556 128.469 93.842 127.772C93.4243 127.069 93.1075 126.373 93.0067 125.842C92.9343 125.46 92.9199 125.063 93.0638 124.727C93.1983 124.412 93.498 124.089 94.1925 123.897C94.5369 123.802 94.9632 123.982 95.3743 124.381C95.5699 124.57 95.7399 124.79 95.8668 125.001C95.9966 125.216 96.068 125.401 96.0882 125.521L96.0924 125.546L96.0999 125.57L96.4475 125.462C96.0999 125.57 96.0999 125.57 96.0999 125.57L96.1069 125.592C96.1114 125.606 96.118 125.627 96.1266 125.654C96.1437 125.708 96.1683 125.785 96.1987 125.88C96.2594 126.069 96.343 126.327 96.4345 126.603C96.6146 127.147 96.8334 127.785 96.9661 128.085C97.2604 128.752 98.0306 129.837 98.6702 130.477C98.9178 130.724 99.3454 131.066 99.8255 131.443C99.8977 131.5 99.9713 131.558 100.046 131.617C100.479 131.956 100.954 132.329 101.414 132.713C101.646 132.907 101.745 133.074 101.785 133.198C101.825 133.32 101.817 133.43 101.786 133.529C101.755 133.632 101.699 133.722 101.646 133.789C101.62 133.822 101.597 133.847 101.581 133.863C101.579 133.866 101.576 133.868 101.574 133.871C101.472 133.938 101.334 133.968 101.141 133.947C100.933 133.925 100.69 133.845 100.425 133.722C99.9543 133.505 99.4855 133.187 99.1168 132.937ZM101.804 134.153L102.044 134.426L102.032 134.437L102.019 134.446C101.726 134.658 101.385 134.703 101.062 134.668C100.744 134.633 100.419 134.519 100.118 134.38C99.5891 134.135 99.0673 133.781 98.7036 133.534C98.6556 133.501 98.6102 133.47 98.568 133.442M101.804 134.153C102.044 134.426 102.044 134.426 102.044 134.426L102.044 134.426L102.045 134.425L102.047 134.424L102.051 134.42C102.055 134.417 102.059 134.413 102.064 134.408C102.074 134.398 102.088 134.386 102.103 134.37C102.134 134.338 102.176 134.293 102.221 134.235C102.309 134.123 102.418 133.955 102.483 133.742C102.55 133.525 102.571 133.262 102.479 132.977C102.388 132.694 102.194 132.419 101.882 132.158C101.413 131.766 100.928 131.386 100.495 131.046C100.421 130.988 100.348 130.931 100.277 130.875C99.784 130.487 99.3964 130.176 99.1864 129.966C98.5973 129.376 97.8845 128.364 97.6331 127.794C97.5174 127.533 97.3102 126.932 97.1264 126.377C97.0358 126.104 96.953 125.848 96.8927 125.66C96.8626 125.566 96.8382 125.489 96.8213 125.436C96.8161 125.42 96.8116 125.406 96.808 125.394C96.8057 125.387 96.8036 125.381 96.8019 125.375C96.757 125.139 96.6411 124.877 96.4919 124.629C96.3341 124.367 96.1252 124.097 95.8822 123.862C95.4163 123.41 94.7274 122.997 93.9967 123.199C93.131 123.438 92.6303 123.888 92.3933 124.442C92.1657 124.975 92.2086 125.542 92.2908 125.975C92.4153 126.631 92.7836 127.414 93.2148 128.14C93.65 128.873 94.1697 129.582 94.6265 130.095C95.0862 130.611 95.8862 131.322 96.6519 131.958C97.4196 132.596 98.179 133.18 98.568 133.442" fill="#1C1C1C"/>
</svg>
